<?xml version="1.0" encoding="UTF-8"?> <!-- Generator: Adobe Illustrator 26.0.2, SVG Export Plug-In . SVG Version: 6.00 Build 0) --> <svg xmlns="http://www.w3.org/2000/svg" xmlns:xlink="http://www.w3.org/1999/xlink" id="Layer_1" x="0px" y="0px" viewBox="0 0 198.5 198.4" style="enable-background:new 0 0 198.5 198.4;" xml:space="preserve"> <style type="text/css"> .st0{fill:#FFFFFF;} .st1{fill:#AF126B;} .st2{fill:#05A8ED;} .st3{fill:#44C1EA;} .st4{fill:#E5077E;} </style> <g> <g> <g> <path class="st0" d="M99.3,29l20.6,20.6H149l0,0l0,0L99.3-0.1L49.6,49.6h29.1L99.3,29z M99.3,7.1l37.4,37.4H122L99.3,21.8V7.1z"></path> <path class="st0" d="M49.6,148.9v-29.1L29.1,99.2l20.6-20.6v-29L0,99.2L49.6,148.9L49.6,148.9L49.6,148.9L49.6,148.9z M7.2,99.2 l37.4-37.4v14.7L21.9,99.2H7.2z"></path> <path class="st0" d="M99.3,169.4l-20.6-20.6H49.6l0,0l49.6,49.6l49.6-49.6h-29.1L99.3,169.4z M99.3,191.3l-37.4-37.4h14.7 l22.7,22.7V191.3z"></path> <path class="st0" d="M148.9,49.6L148.9,49.6L148.9,49.6v29.1l20.6,20.6l-20.6,20.6V149l49.6-49.6L148.9,49.6z M154,121.9 l22.7-22.7h14.7L154,136.6V121.9z"></path> </g> <g> <polygon class="st1" points="119.8,119.8 119.8,148.9 148.9,119.8 "></polygon> <polygon class="st1" points="49.6,78.7 78.7,78.7 78.7,78.7 78.7,49.6 "></polygon> <polygon class="st2" points="78.7,148.9 78.7,119.8 49.6,119.8 "></polygon> <polygon class="st2" points="119.8,49.6 119.8,78.7 148.9,78.7 "></polygon> <g> <polygon class="st3" points="67.8,130.7 73.6,124.9 61.9,124.9 "></polygon> <polygon class="st3" points="124.9,73.6 124.9,73.6 136.6,73.6 130.8,67.7 "></polygon> </g> <polygon class="st4" points="130.8,130.7 124.9,124.9 124.9,136.6 "></polygon> <polygon class="st4" points="73.6,61.9 67.8,67.7 73.6,73.6 73.6,73.6 "></polygon> </g> </g> </g> </svg> 