<?xml version="1.0" encoding="UTF-8"?> <!-- Generator: Adobe Illustrator 26.0.2, SVG Export Plug-In . SVG Version: 6.00 Build 0) --> <svg xmlns="http://www.w3.org/2000/svg" xmlns:xlink="http://www.w3.org/1999/xlink" id="Layer_1" x="0px" y="0px" viewBox="0 0 749.6 198.4" style="enable-background:new 0 0 749.6 198.4;" xml:space="preserve"> <style type="text/css"> .st0{fill:#FFFFFF;} .st1{fill:#AF126B;} .st2{fill:#05A8ED;} .st3{fill:#44C1EA;} .st4{fill:#E5077E;} </style> <g> <g> <g> <path class="st0" d="M99.3,29l20.6,20.6h29.1v0l0,0L99.3-0.1L49.6,49.6h29.1L99.3,29z M99.3,7.1l37.4,37.4h-14.7L99.3,21.8V7.1z"></path> <path class="st0" d="M49.6,148.9v-29.1L29.1,99.2l20.6-20.6V49.6L0,99.2L49.6,148.9L49.6,148.9L49.6,148.9L49.6,148.9z M7.2,99.2 l37.4-37.4v14.7L21.9,99.2H7.2z"></path> <path class="st0" d="M99.3,169.4l-20.6-20.6H49.6v0l49.6,49.6l49.6-49.6h-29.1L99.3,169.4z M99.3,191.3l-37.4-37.4h14.7 l22.7,22.7V191.3z"></path> <path class="st0" d="M148.9,49.6L148.9,49.6L148.9,49.6v29.1l20.6,20.6l-20.6,20.6v29.1l49.6-49.6L148.9,49.6z M154,121.9 l22.7-22.7h14.7L154,136.6V121.9z"></path> </g> <g> <polygon class="st1" points="119.8,119.8 119.8,148.9 148.9,119.8 "></polygon> <polygon class="st1" points="49.6,78.7 78.7,78.7 78.7,78.7 78.7,49.6 "></polygon> <polygon class="st2" points="78.7,148.9 78.7,119.8 49.6,119.8 "></polygon> <polygon class="st2" points="119.8,49.6 119.8,78.7 148.9,78.7 "></polygon> <g> <polygon class="st3" points="67.8,130.7 73.6,124.9 61.9,124.9 "></polygon> <polygon class="st3" points="124.9,73.6 124.9,73.6 136.6,73.6 130.8,67.7 "></polygon> </g> <polygon class="st4" points="130.8,130.7 124.9,124.9 124.9,136.6 "></polygon> <polygon class="st4" points="73.6,61.9 67.8,67.7 73.6,73.6 73.6,73.6 "></polygon> </g> </g> <g> <g> <path class="st2" d="M257.7,168.4h-4.6l-8.9-11.4c-1.1,0.1-2.4,0.2-3.5,0.2h-9.3v11.3h-3.6v-37.7h12.9c8.9,0,17.9,2.6,17.9,12.9 c0,7.4-4.7,11.2-10.7,12.8L257.7,168.4z M240.5,153.9c7.7,0,14.3-2,14.3-10.4c0-7.9-6.7-9.6-14.3-9.6h-9.1v20H240.5z"></path> <path class="st2" d="M262.4,149.5c0-13,9-19,20.8-19c11.7,0,20.7,6,20.7,19c0,13.1-9,19-20.7,19 C271.5,168.6,262.4,162.6,262.4,149.5z M266.3,149.5c0,8.8,4.1,15.8,17,15.8c12.8,0,16.9-7.1,16.9-15.8c0-8.8-4.1-15.8-16.9-15.8 C270.4,133.8,266.3,140.8,266.3,149.5z"></path> <path class="st2" d="M334.5,168.4l-3.7-9.2h-19.3l-3.6,9.2h-3.7l14.8-37.2l4.3-0.2l14.9,37.4H334.5z M312.7,155.9h16.8l-8.4-21.2 L312.7,155.9z"></path> <path class="st2" d="M342,168.4v-37.7h10.9c12,0,21.3,5.9,21.3,18.9c0,13.1-9.3,18.8-21.3,18.8H342z M345.6,165.2h7.3 c10.3,0,17.6-4.4,17.6-15.7c0-11.2-7.3-15.7-17.6-15.7h-7.3V165.2z"></path> <path class="st2" d="M428.3,130.7l-0.3,3.2h-16.6v34.5h-3.6v-34.5H391l0.3-3.2H428.3z"></path> <path class="st2" d="M429.8,149.5c0-13,9-19,20.8-19c11.7,0,20.7,6,20.7,19c0,13.1-9,19-20.7,19 C438.8,168.6,429.8,162.6,429.8,149.5z M433.6,149.5c0,8.8,4.1,15.8,17,15.8c12.8,0,16.9-7.1,16.9-15.8c0-8.8-4.1-15.8-16.9-15.8 C437.7,133.8,433.6,140.8,433.6,149.5z"></path> <path class="st2" d="M518.1,165.2l-0.3,3.2h-30.3l0.4-3.4c0.9-8.2,7.1-13.2,14.9-15.3c6.8-1.8,11.8-2.6,11.8-8.5 c0-4.9-5.2-7.3-12.9-7.3c-3.9,0-8.9,0.8-11.3,1.4l-0.9-3.2c3.5-0.9,7.2-1.4,12.1-1.4c8.4,0,16.5,2.6,16.5,10.8 c0,7.4-5.6,9.2-13.7,11.3c-8.7,2.3-12.4,6.7-13,12.5H518.1z"></path> <path class="st2" d="M520.2,149.5c0-13,9-19,20.7-19c11.7,0,20.7,6,20.7,19c0,13.1-9,19-20.7,19 C529.2,168.6,520.2,162.6,520.2,149.5z M524,149.5c0,8.8,4.1,15.8,16.9,15.8c12.9,0,17-7.1,17-15.8c0-8.8-4.1-15.8-17-15.8 C528.1,133.8,524,140.8,524,149.5z"></path> <path class="st2" d="M593.5,165.2l-0.3,3.2h-30.3l0.4-3.4c0.9-8.2,7.1-13.2,14.9-15.3c6.8-1.8,11.8-2.6,11.8-8.5 c0-4.9-5.2-7.3-12.9-7.3c-3.9,0-8.9,0.8-11.3,1.4l-0.9-3.2c3.5-0.9,7.2-1.4,12.1-1.4c8.4,0,16.5,2.6,16.5,10.8 c0,7.4-5.6,9.2-13.7,11.3c-8.7,2.3-12.4,6.7-13,12.5H593.5z"></path> <path class="st2" d="M617.8,130.9l2.4-0.2v27.4h14l1.1,3.2h-15.1v7.1h-3.6v-7.1h-21.1l0.3-3.2v-0.1L617.8,130.9z M616.7,137.6 l-16.3,20.5h16.3V137.6z"></path> </g> <g> <path class="st0" d="M280.6,70.6c0-27.9,19.3-40.7,44.5-40.7c25.1,0,44.5,12.8,44.5,40.7c0,28.1-19.4,40.9-44.5,40.9 C299.8,111.5,280.6,98.7,280.6,70.6z M300.6,70.6c0,12.1,6.1,21.8,24.4,21.8c18.2,0,24.4-9.7,24.4-21.8c0-12-6.2-21.7-24.4-21.7 C306.8,48.9,300.6,58.6,300.6,70.6z"></path> <path class="st0" d="M393.4,111h-20V30.2h25.8L422.6,80l23.4-49.8h25.8V111h-20V63.5L430.3,111h-15.4l-21.5-47.4V111z"></path> <path class="st0" d="M496.2,111h-20.1V30.2h32.6c19,0,38.9,6.5,38.9,29.5c0,23.1-19.8,29.2-38.9,29.2h-12.6V111z M508.8,69.8 c15.3,0,18.8-2.9,18.8-10.1c0-7-3.5-10.3-18.8-10.3h-12.6v20.4H508.8z"></path> <path class="st0" d="M595.6,111l-4-11.9h-30.5l-4,11.9h-21.6l29-80.8h23.7l29,80.8H595.6z M567.7,80h17.4l-8.7-25.7L567.7,80z"></path> <path class="st0" d="M280.2,91c-4.1,0.7-8.8,1.2-14.2,1.2c-15.9,0-24.2-7.3-24.2-21.5c0-14.3,8.3-21.6,24.2-21.6 c4.6,0,9.7,0.5,14.1,1.2c3-6.8,7.7-12.4,13.9-16.5c-7.3-2.3-17.7-4-28-4c-25.1,0-44.3,12.8-44.3,40.9c0,27.9,19.1,40.7,44.3,40.7 c11.7,0,19.6-1.4,27.7-4.2C287.8,103.2,283.2,97.7,280.2,91z"></path> <path class="st0" d="M646,60.8c-11.7-0.7-18.1-1.1-18.1-5.9c0-4.9,3.4-5.9,16.6-5.9c8.3,0,19.7,1.5,24.9,2.7l3.3-18.9 c-7.5-1.9-17.5-3.1-28.2-3.1c-18.1,0-36.6,6.9-36.6,25.7c0,18,19.3,23.4,37.2,24.5c13.3,0.9,16.2,1.3,16.2,6 c0,6.3-10.1,6.1-21,6.1c-9.8,0-19.8-1.9-26.3-3.5l7.6,21.2c5.8,1,12.1,1.5,19.4,1.5c18.8,0,40.4-5.5,40.4-26.4 C681.3,66.8,663.5,62,646,60.8z"></path> <path class="st0" d="M714.3,60.8c-11.7-0.7-18.1-1.1-18.1-5.9c0-4.9,3.4-5.9,16.6-5.9c8.3,0,19.7,1.5,24.9,2.7l3.3-18.9 c-7.5-1.9-17.5-3.1-28.2-3.1c-18.1,0-36.6,6.9-36.6,25.7c0,18,19.3,23.4,37.2,24.5c13.3,0.9,16.2,1.3,16.2,6 c0,6.3-10.1,6.1-21,6.1c-8.3,0-16.8-1.3-23.1-2.8c-1,7-4.3,12.8-9.7,17.1c9.9,3,19.9,4.9,33.6,4.9c18.8,0,40.4-5.5,40.4-26.4 C749.6,66.8,731.8,62,714.3,60.8z"></path> </g> </g> </g> </svg> 